<?xml version="1.0" standalone="no"?>
<!DOCTYPE svg PUBLIC "-//W3C//DTD SVG 20010904//EN"
 "http://www.w3.org/TR/2001/REC-SVG-20010904/DTD/svg10.dtd">
<svg version="1.0" xmlns="http://www.w3.org/2000/svg"
 width="920.000000pt" height="922.000000pt" viewBox="0 0 920.000000 922.000000"
 preserveAspectRatio="xMidYMid meet">

<g transform="translate(0.000000,922.000000) scale(0.100000,-0.100000)"
fill="#000000" stroke="none">
<path d="M7395 9196 c-83 -19 -180 -60 -245 -103 -30 -20 -175 -156 -323 -302
l-267 -266 975 -975 975 -975 284 285 c283 284 284 285 329 380 58 122 72 181
71 310 0 182 -54 321 -179 463 -40 45 -295 303 -566 572 -535 531 -546 541
-704 591 -99 32 -258 41 -350 20z"/>
<path d="M3637 5593 l-2437 -2438 972 -972 973 -973 2438 2438 2437 2437 -972
972 -973 973 -2438 -2437z"/>
<path d="M701 2624 c-7 -27 -43 -164 -81 -304 -38 -140 -105 -392 -150 -560
-45 -168 -117 -435 -160 -595 -84 -316 -194 -725 -263 -985 -25 -91 -44 -166
-43 -167 2 -3 126 30 1181 313 154 42 395 106 535 144 140 38 401 107 580 155
179 47 333 89 343 93 13 6 -185 209 -956 981 l-974 973 -12 -48z"/>
</g>
</svg>
